<svg width="16" height="16" viewBox="0 0 16 16" fill="none" xmlns="http://www.w3.org/2000/svg">
<path d="M8 14C11.3137 14 14 11.3137 14 8C14 4.68629 11.3137 2 8 2C4.68629 2 2 4.68629 2 8C2 11.3137 4.68629 14 8 14Z" stroke="#4D4D4D" stroke-miterlimit="10"/>
<path d="M8.00029 14C9.90568 14 11.4503 11.3137 11.4503 8C11.4503 4.68629 9.90568 2 8.00029 2C6.09491 2 4.55029 4.68629 4.55029 8C4.55029 11.3137 6.09491 14 8.00029 14Z" stroke="#4D4D4D" stroke-miterlimit="10"/>
<path d="M8 2V14" stroke="#4D4D4D" stroke-miterlimit="10"/>
<path d="M13.5 6L2.5 6" stroke="#4D4D4D" stroke-miterlimit="10"/>
<path d="M13.5 10H2.5" stroke="#4D4D4D" stroke-miterlimit="10"/>
</svg>
